<svg width="23" height="23" viewBox="0 0 23 23" fill="none" xmlns="http://www.w3.org/2000/svg">
<path d="M17.9167 6.45833H16.7433L16.45 5.54167C16.2598 5.00379 15.9071 4.53838 15.4407 4.2099C14.9742 3.88142 14.4172 3.70613 13.8467 3.70833H9.15334C8.57726 3.70941 8.01607 3.89138 7.54896 4.22855C7.08186 4.56572 6.73243 5.04107 6.55001 5.5875L6.25668 6.50417H5.08334C4.354 6.50417 3.65452 6.7939 3.1388 7.30962C2.62307 7.82535 2.33334 8.52482 2.33334 9.25417V16.5875C2.33334 17.3168 2.62307 18.0163 3.1388 18.532C3.65452 19.0478 4.354 19.3375 5.08334 19.3375H17.9167C18.646 19.3375 19.3455 19.0478 19.8612 18.532C20.3769 18.0163 20.6667 17.3168 20.6667 16.5875V9.25417C20.6728 8.88919 20.6061 8.52666 20.4706 8.18771C20.3352 7.84875 20.1336 7.54016 19.8776 7.27993C19.6216 7.01969 19.3164 6.81302 18.9797 6.67196C18.6431 6.5309 18.2817 6.45828 17.9167 6.45833ZM18.8333 16.5417C18.8333 16.7848 18.7368 17.0179 18.5649 17.1898C18.393 17.3618 18.1598 17.4583 17.9167 17.4583H5.08334C4.84023 17.4583 4.60707 17.3618 4.43516 17.1898C4.26325 17.0179 4.16668 16.7848 4.16668 16.5417V9.20833C4.16668 8.96522 4.26325 8.73206 4.43516 8.56015C4.60707 8.38824 4.84023 8.29167 5.08334 8.29167H6.91668C7.11657 8.3021 7.31439 8.24682 7.47991 8.13426C7.64543 8.02171 7.76956 7.85807 7.83334 7.66833L8.32834 6.165C8.38984 5.98293 8.507 5.82479 8.66327 5.71294C8.81953 5.60108 9.007 5.54117 9.19918 5.54167H13.8925C14.0847 5.54117 14.2722 5.60108 14.4284 5.71294C14.5847 5.82479 14.7018 5.98293 14.7633 6.165L15.2583 7.66833C15.3172 7.84318 15.4274 7.99622 15.5746 8.10743C15.7218 8.21864 15.8991 8.28285 16.0833 8.29167H17.9167C18.1598 8.29167 18.393 8.38824 18.5649 8.56015C18.7368 8.73206 18.8333 8.96522 18.8333 9.20833V16.5417ZM11.5 8.29167C10.7748 8.29167 10.0659 8.50671 9.46292 8.90961C8.85994 9.31251 8.38997 9.88516 8.11245 10.5552C7.83493 11.2252 7.76232 11.9624 7.9038 12.6737C8.04528 13.3849 8.39449 14.0383 8.90728 14.5511C9.42008 15.0639 10.0734 15.4131 10.7847 15.5545C11.4959 15.696 12.2332 15.6234 12.9032 15.3459C13.5732 15.0684 14.1458 14.5984 14.5487 13.9954C14.9516 13.3924 15.1667 12.6835 15.1667 11.9583C15.1667 10.9859 14.7804 10.0532 14.0927 9.36561C13.4051 8.67797 12.4725 8.29167 11.5 8.29167ZM11.5 13.7917C11.1374 13.7917 10.783 13.6841 10.4815 13.4827C10.18 13.2812 9.94499 12.9949 9.80623 12.6599C9.66747 12.3249 9.63116 11.9563 9.7019 11.6007C9.77264 11.245 9.94725 10.9184 10.2036 10.662C10.46 10.4056 10.7867 10.231 11.1423 10.1602C11.498 10.0895 11.8666 10.1258 12.2016 10.2646C12.5366 10.4033 12.8229 10.6383 13.0244 10.9398C13.2258 11.2413 13.3333 11.5957 13.3333 11.9583C13.3333 12.4446 13.1402 12.9109 12.7964 13.2547C12.4526 13.5985 11.9862 13.7917 11.5 13.7917Z" fill="#020617" fill-opacity="0.85"/>
<path d="M6.92972 7.79167L6.94274 7.79235C7.0336 7.79709 7.12352 7.77196 7.19875 7.7208C7.27364 7.66988 7.32988 7.59595 7.359 7.51023L7.85343 6.00862L7.85462 6.005L7.85463 6.005C7.94967 5.72362 8.13074 5.47923 8.37224 5.30636L8.65454 5.70075L8.37224 5.30636C8.61355 5.13363 8.90301 5.04105 9.19975 5.04167M6.92972 7.79167L9.19918 5.54167M6.92972 7.79167H6.91668M6.92972 7.79167H6.91668M9.19975 5.04167C9.19999 5.04167 9.20023 5.04167 9.20047 5.04167L9.19918 5.54167M9.19975 5.04167H9.19918V5.54167M9.19975 5.04167H13.8919M9.19918 5.54167H13.8925M13.8919 5.04167C13.8917 5.04167 13.8915 5.04167 13.8912 5.04167L13.8925 5.54167M13.8919 5.04167H13.8925V5.54167M13.8919 5.04167C14.1887 5.04105 14.4781 5.13363 14.7194 5.30636C14.9609 5.47923 15.142 5.72362 15.2371 6.005L15.2383 6.00862L15.2383 6.00862L15.7322 7.50891C15.7324 7.50931 15.7325 7.50972 15.7327 7.51013L15.7333 7.51196L15.2583 7.66833L13.8925 5.54167M6.91668 7.79167H5.08334C4.70762 7.79167 4.34729 7.94092 4.08161 8.2066C3.81593 8.47228 3.66668 8.83261 3.66668 9.20833V16.5417C3.66668 16.9174 3.81593 17.2777 4.08161 17.5434C4.34729 17.8091 4.70762 17.9583 5.08334 17.9583H17.9167C18.2924 17.9583 18.6527 17.8091 18.9184 17.5434C19.1841 17.2777 19.3333 16.9174 19.3333 16.5417V9.20833C19.3333 8.83261 19.1841 8.47227 18.9184 8.2066C18.6527 7.94092 18.2924 7.79167 17.9167 7.79167H16.0976H6.91668ZM17.9167 6.95833H17.9167C18.2154 6.95829 18.5111 7.01771 18.7865 7.13312C19.062 7.24853 19.3117 7.41763 19.5211 7.63054L19.8776 7.27993L19.5211 7.63055C19.7306 7.84347 19.8955 8.09595 20.0064 8.37327C20.1172 8.6506 20.1717 8.94722 20.1667 9.24583L20.1667 9.24583V9.25417V16.5875C20.1667 17.1842 19.9296 17.7565 19.5077 18.1785C19.0857 18.6004 18.5134 18.8375 17.9167 18.8375H5.08334C4.48661 18.8375 3.91431 18.6004 3.49235 18.1785C3.0704 17.7565 2.83334 17.1842 2.83334 16.5875V9.25417C2.83334 8.65743 3.0704 8.08513 3.49235 7.66318C3.91431 7.24122 4.48661 7.00417 5.08334 7.00417H6.25668H6.62165L6.73289 6.65655L7.02521 5.74304C7.17473 5.29713 7.46022 4.90925 7.8416 4.63396C8.22366 4.35818 8.68264 4.20931 9.15382 4.20833L13.8467 4.20834L13.8486 4.20833C14.3154 4.20653 14.7711 4.34994 15.1528 4.6187C15.5325 4.88608 15.8201 5.26436 15.9762 5.70158L16.2671 6.61072L16.3784 6.95833H16.7433H17.9167ZM9.7407 9.32535C10.2615 8.97739 10.8737 8.79167 11.5 8.79167C12.3399 8.79167 13.1453 9.1253 13.7392 9.71916C14.333 10.313 14.6667 11.1185 14.6667 11.9583C14.6667 12.5846 14.481 13.1969 14.133 13.7176C13.785 14.2384 13.2905 14.6443 12.7118 14.884C12.1332 15.1236 11.4965 15.1863 10.8822 15.0642C10.268 14.942 9.7037 14.6404 9.26084 14.1975C8.81797 13.7546 8.51638 13.1904 8.39419 12.5761C8.272 11.9618 8.33471 11.3251 8.57439 10.7465C8.81407 10.1679 9.21995 9.6733 9.7407 9.32535ZM10.2037 13.8984C10.5874 14.1548 11.0385 14.2917 11.5 14.2917C12.1188 14.2917 12.7123 14.0458 13.1499 13.6082C13.5875 13.1707 13.8333 12.5772 13.8333 11.9583C13.8333 11.4968 13.6965 11.0457 13.4401 10.662C13.1837 10.2783 12.8193 9.97922 12.3929 9.80261C11.9666 9.62601 11.4974 9.5798 11.0448 9.66983C10.5922 9.75987 10.1764 9.9821 9.85009 10.3084C9.52377 10.6347 9.30154 11.0505 9.21151 11.5031C9.12148 11.9557 9.16769 12.4249 9.34429 12.8513C9.5209 13.2776 9.81997 13.642 10.2037 13.8984Z" stroke="#020617" stroke-opacity="0.85"/>
</svg>
