<svg width="20" height="21" viewBox="0 0 20 21" fill="none" xmlns="http://www.w3.org/2000/svg">
<path d="M15.8334 2.16666H4.16669C3.50365 2.16666 2.86776 2.43005 2.39892 2.89889C1.93008 3.36773 1.66669 4.00362 1.66669 4.66666V16.3333C1.66669 16.9964 1.93008 17.6322 2.39892 18.1011C2.86776 18.5699 3.50365 18.8333 4.16669 18.8333H15.8334C15.9704 18.8314 16.1071 18.8175 16.2417 18.7917L16.4917 18.7333H16.55H16.5917L16.9 18.6167L17.0084 18.5583C17.0917 18.5083 17.1834 18.4667 17.2667 18.4083C17.378 18.3265 17.4837 18.2374 17.5834 18.1417L17.6417 18.0667C17.7235 17.9837 17.7987 17.8946 17.8667 17.8L17.9417 17.6917C17.9999 17.5989 18.0501 17.5013 18.0917 17.4C18.1146 17.36 18.1341 17.3182 18.15 17.275C18.1917 17.175 18.2167 17.0667 18.25 16.9583V16.8333C18.2973 16.6705 18.3252 16.5027 18.3334 16.3333V4.66666C18.3334 4.00362 18.07 3.36773 17.6011 2.89889C17.1323 2.43005 16.4964 2.16666 15.8334 2.16666ZM4.16669 17.1667C3.94567 17.1667 3.73371 17.0789 3.57743 16.9226C3.42115 16.7663 3.33335 16.5543 3.33335 16.3333V12.7417L6.07502 9.99166C6.15249 9.91355 6.24466 9.85155 6.34621 9.80925C6.44776 9.76694 6.55668 9.74516 6.66669 9.74516C6.7767 9.74516 6.88562 9.76694 6.98717 9.80925C7.08872 9.85155 7.18088 9.91355 7.25835 9.99166L14.425 17.1667H4.16669ZM16.6667 16.3333C16.6659 16.4361 16.6461 16.5378 16.6084 16.6333C16.5893 16.6739 16.567 16.713 16.5417 16.75C16.5194 16.7853 16.4943 16.8187 16.4667 16.85L12.0084 12.3917L12.7417 11.6583C12.8192 11.5802 12.9113 11.5182 13.0129 11.4759C13.1144 11.4336 13.2233 11.4118 13.3334 11.4118C13.4434 11.4118 13.5523 11.4336 13.6538 11.4759C13.7554 11.5182 13.8476 11.5802 13.925 11.6583L16.6667 14.4083V16.3333ZM16.6667 12.05L15.1 10.5C14.6231 10.0475 13.9908 9.79522 13.3334 9.79522C12.6759 9.79522 12.0436 10.0475 11.5667 10.5L10.8334 11.2333L8.43335 8.83332C7.95645 8.38082 7.3241 8.12856 6.66669 8.12856C6.00927 8.12856 5.37692 8.38082 4.90002 8.83332L3.33335 10.3833V4.66666C3.33335 4.44564 3.42115 4.23368 3.57743 4.0774C3.73371 3.92112 3.94567 3.83332 4.16669 3.83332H15.8334C16.0544 3.83332 16.2663 3.92112 16.4226 4.0774C16.5789 4.23368 16.6667 4.44564 16.6667 4.66666V12.05Z" fill="#020617" fill-opacity="0.85"/>
<path d="M16.4917 18.2333H16.4341L16.3781 18.2464L16.1384 18.3023C16.0365 18.3213 15.9332 18.3317 15.8296 18.3333H4.16669C3.63625 18.3333 3.12755 18.1226 2.75247 17.7475C2.3774 17.3725 2.16669 16.8638 2.16669 16.3333V4.66666C2.16669 4.13622 2.3774 3.62752 2.75247 3.25244C3.12755 2.87737 3.63625 2.66666 4.16669 2.66666H15.8334C16.3638 2.66666 16.8725 2.87737 17.2476 3.25244C17.6226 3.62752 17.8334 4.13622 17.8334 4.66666V16.3206C17.8264 16.447 17.8051 16.5723 17.7698 16.694L17.75 16.7623V16.8333V16.8851C17.7423 16.9115 17.7361 16.9336 17.7307 16.9531C17.7157 17.0067 17.7064 17.0397 17.6885 17.0827L17.6845 17.0922L17.681 17.1018C17.6746 17.1191 17.6668 17.1358 17.6577 17.1518L17.6415 17.18L17.6292 17.21C17.5997 17.2818 17.5644 17.351 17.5237 17.417L17.4582 17.5116C17.406 17.5839 17.3484 17.652 17.2858 17.7155L17.2651 17.7364L17.247 17.7597L17.2118 17.8049C17.137 17.8749 17.0583 17.9406 16.9759 18.0015C16.958 18.0137 16.9346 18.0275 16.8974 18.0479C16.8906 18.0516 16.8827 18.0559 16.874 18.0606C16.843 18.0774 16.8011 18.1 16.762 18.1231L16.6921 18.1607L16.5003 18.2333H16.4917ZM2.97926 12.3886L2.83335 12.535V12.7417V16.3333C2.83335 16.6869 2.97383 17.0261 3.22388 17.2761C3.47393 17.5262 3.81307 17.6667 4.16669 17.6667H14.425H15.6311L14.7788 16.8133L7.61335 9.63956C7.61313 9.63933 7.61291 9.6391 7.61268 9.63888C7.48887 9.51423 7.34164 9.41527 7.17946 9.3477C7.01697 9.28001 6.8427 9.24516 6.66669 9.24516C6.49067 9.24516 6.3164 9.28001 6.15392 9.3477C5.99162 9.41532 5.8443 9.51436 5.72044 9.63913C5.7203 9.63927 5.72016 9.63942 5.72002 9.63956L2.97926 12.3886ZM17.1667 16.3371H17.1667V16.3333V14.4083V14.2017L17.0208 14.0553L14.28 11.3062C14.2798 11.306 14.2796 11.3058 14.2794 11.3056C14.1556 11.1809 14.0083 11.0819 13.8461 11.0144C13.6836 10.9467 13.5094 10.9118 13.3334 10.9118C13.1573 10.9118 12.9831 10.9467 12.8206 11.0144C12.6585 11.0819 12.5114 11.1808 12.3876 11.3053C12.3873 11.3056 12.387 11.3059 12.3867 11.3062L11.6548 12.0381L11.3012 12.3917L11.6548 12.7452L16.1131 17.2035L16.4893 17.5797L16.8415 17.181C16.8847 17.132 16.9242 17.0798 16.9595 17.0248C16.9979 16.9678 17.0319 16.9079 17.0611 16.8456L17.0676 16.8316L17.0733 16.8171C17.1338 16.6643 17.1654 16.5015 17.1667 16.3371ZM16.315 12.4054L17.1667 13.248V12.05V4.66666C17.1667 4.31303 17.0262 3.9739 16.7762 3.72385C16.5261 3.4738 16.187 3.33332 15.8334 3.33332H4.16669C3.81306 3.33332 3.47393 3.4738 3.22388 3.72385L3.57743 4.0774L3.22388 3.72385C2.97383 3.9739 2.83335 4.31303 2.83335 4.66666V10.3833V11.5814L3.68501 10.7388L5.24777 9.19263C5.63134 8.83041 6.13899 8.62856 6.66669 8.62856C7.19397 8.62856 7.70122 8.83009 8.08469 9.19177L10.4798 11.5869L10.8334 11.9404L11.1869 11.5869L11.9154 10.8584C12.2988 10.4968 12.8061 10.2952 13.3334 10.2952C13.8611 10.2952 14.3687 10.4971 14.7523 10.8593L16.315 12.4054Z" stroke="#020617" stroke-opacity="0.85"/>
</svg>
